<svg xmlns="http://www.w3.org/2000/svg">
  <defs>
    
    <!-- user icon -->
    <symbol id="icon-user" viewBox="-5.0 -10.0 110.0 135.0">
      <path d="m50 81c8.2227 0 16.105-3.2656 21.922-9.0781 5.8125-5.8164 9.0781-13.699 9.0781-21.922s-3.2656-16.105-9.0781-21.922c-5.8164-5.8125-13.699-9.0781-21.922-9.0781s-16.105 3.2656-21.922 9.0781c-5.8125 5.8164-9.0781 13.699-9.0781 21.922 0.007812 8.2188 3.2773 16.102 9.0859 21.914 5.8125 5.8086 13.695 9.0781 21.914 9.0859zm0-52c4.4492 0 8.4609 2.6797 10.164 6.7891 1.7031 4.1133 0.76172 8.8438-2.3867 11.988-3.1445 3.1484-7.875 4.0898-11.988 2.3867-4.1094-1.7031-6.7891-5.7148-6.7891-10.164 0.011719-6.0703 4.9297-10.988 11-11zm0 26c4.6797 0.023438 9.1836 1.7617 12.664 4.8906 3.4805 3.125 5.6914 7.4219 6.2148 12.07-5.2422 4.5391-11.945 7.0391-18.879 7.0391s-13.637-2.5-18.879-7.0391c0.52344-4.6484 2.7344-8.9453 6.2148-12.07 3.4805-3.1289 7.9844-4.8672 12.664-4.8906z"/>
    </symbol>

    <!-- cart icon -->
    <symbol id="icon-cart" viewBox="0 0 26.458333 33.0729175">
      <path d="m2.4058989 273.45248c-.97173-.0296-1.13467 1.37821-.18189 1.57146l1.75534.38447c.92853 4.44188 1.94068 8.86566 2.92217 13.2964.0807.3633.40297.62177.7751.62166h13.9388601c1.07391.0159 1.07391-1.60327 0-1.5875h-13.3017301l-.35138-1.58699h14.3563801c.37214.0001.69439-.25837.7751-.62167l1.75793-7.93652c.10958-.49538-.26727-.96501-.77459-.96531-6.07305.00014-12.14606-.00013-18.2189501-.003l-.43147-2.04709c-.0643-.30552-.30172-.54494-.60664-.61185l-2.25709-.49403c-.0516-.0119-.10418-.0188-.15709-.0201zm8.5746601 16.40374c-1.1595301 0-2.1165401.95711-2.1165401 2.1167 0 1.15961.95701 2.11669 2.1165401 2.11669 1.15953 0 2.11653-.95708 2.11653-2.11669 0-1.15959-.957-2.1167-2.11653-2.1167zm7.40787 0c-1.15952 0-2.11653.95711-2.11653 2.1167 0 1.15961.95701 2.11669 2.11653 2.11669 1.15954 0 2.11654-.95708 2.11654-2.11669 0-1.15959-.957-2.1167-2.11654-2.1167z" transform="translate(0 -270.54165)"/>
    </symbol>

    <!-- home icon -->
    <symbol id="icon-home" viewBox="0 0 48 60">
      <path d="M354,93L344,93C343.448,93 343,92.552 343,92C343,92 343,73 343,73L340,73C339.596,73 339.231,72.756 339.076,72.383C338.921,72.009 339.007,71.579 339.293,71.293C339.293,71.293 359.293,51.293 359.293,51.293C359.683,50.902 360.317,50.902 360.707,51.293C360.707,51.293 380.707,71.293 380.707,71.293C380.993,71.579 381.079,72.009 380.924,72.383C380.769,72.756 380.404,73 380,73L377,73L377,92C377,92.552 376.552,93 376,93L366,93C365.735,93 365.48,92.895 365.293,92.707C365.105,92.52 365,92.265 365,92C365,92 365,83.046 365,80C365,79.448 364.552,79 364,79C362.084,79 357.916,79 356,79C355.448,79 355,79.448 355,80C355,83.046 355,92 355,92C355,92.265 354.895,92.52 354.707,92.707C354.52,92.895 354.265,93 354,93Z" transform="translate(-336,-48)"/>
    </symbol>

  </defs>
</svg>
